# xmcd
#
# Track frame offsets:
# 150
# 15254
# 30483
# 44147
# 60381
# 75689
# 89598
# 104120
# 120872
# 134420
# 150705
# 161156
#
# Disc length: 2309 seconds
#
#
# Revision: 0
# Processed by: cddbd v1.5.1PL0 Copyright (c) Steve Scherf et al.
# Submitted via: FreeRIP 2.70 
#
DISCID=9609030c
DTITLE=Vários - 1º Festival de Viola de Monte Alto
DYEAR=2004
DGENRE=Sertanejo Raiz
TTITLE0=Tributo ao Poeta - Mateus e Daniel
TTITLE1=Dia na Roça - Diego e Rafael
TTITLE2=Baú de Saudades - Max e Samuel
TTITLE3=Opinião de Caboclo - Os Irmãos Ferreira
TTITLE4=Relíquias de um Carreiro - Albano e André
TTITLE5=Pirangueiro - Caio e Cassio
TTITLE6=Estradeiro - João Roberto e Mailson
TTITLE7=Missão Honrosa - Canadá e Continensse
TTITLE8=Berço de Couro - Suleiman e Marcos Canela
TTITLE9=Felicidade Não tem Preço - Luis e Gabriel
TTITLE10=Viola Caipira - Rogério e João Roberto
TTITLE11=Amigo Carreteiro - Murilo e Marcelo
EXTD=By Max
EXTT0=
EXTT1=
EXTT2=
EXTT3=
EXTT4=
EXTT5=
EXTT6=
EXTT7=
EXTT8=
EXTT9=
EXTT10=
EXTT11=
PLAYORDER=
